PathFileType	4	(X/Y/Z)	C:/Users/opensim2020/Desktop/walking_exp_matlab/subject03_walking14_straight_04.trc																																																																																																																																											
DataRate	CameraRate	NumFrames	NumMarkers	Units	OrigDataRate	OrigDataStartFrame	OrigNumFrames																																																																																																																																							
100	100	5	47	mm	100	2200	177																																																																																																																																							
Frame#	Time	LFHD			RFHD			LBHD			RBHD			C7			T10			CLAV			STRN			RBAK			LSHO			LUPA			LELB			LFRM			LWRA			LWRB			LFIN			RSHO			RUPA			RELB			RFRM			RWRA			RWRB			RFIN			LASI			RASI			LPSI			RPSI			LTHI			LKNE			LTIB			LANK			LHEE			LTOE			RTHI			RKNE			RTIB			RANK			RHEE			RTOE			*39			*40			*41			*42			*43			*44			*45			*46		
		X1	Y1	Z1	X2	Y2	Z2	X3	Y3	Z3	X4	Y4	Z4	X5	Y5	Z5	X6	Y6	Z6	X7	Y7	Z7	X8	Y8	Z8	X9	Y9	Z9	X10	Y10	Z10	X11	Y11	Z11	X12	Y12	Z12	X13	Y13	Z13	X14	Y14	Z14	X15	Y15	Z15	X16	Y16	Z16	X17	Y17	Z17	X18	Y18	Z18	X19	Y19	Z19	X20	Y20	Z20	X21	Y21	Z21	X22	Y22	Z22	X23	Y23	Z23	X24	Y24	Z24	X25	Y25	Z25	X26	Y26	Z26	X27	Y27	Z27	X28	Y28	Z28	X29	Y29	Z29	X30	Y30	Z30	X31	Y31	Z31	X32	Y32	Z32	X33	Y33	Z33	X34	Y34	Z34	X35	Y35	Z35	X36	Y36	Z36	X37	Y37	Z37	X38	Y38	Z38	X39	Y39	Z39	X40	Y40	Z40	X41	Y41	Z41	X42	Y42	Z42	X43	Y43	Z43	X44	Y44	Z44	X45	Y45	Z45	X46	Y46	Z46	X47	Y47	Z47
																																																																																																																																														
23	0.22	-751.65118	1619.00256	916.42993	-755.78278	1626.16052	1048.99658	-877.13733	1567.65552	918.48669	-875.7226	1574.3042	1049.24634	-901.63757	1411.03394	982.30695	-928.24982	1098.02234	985.01666	-778.60699	1336.80762	979.42896	-731.00287	1172.88757	969.67279	-946.96796	1233.21021	1078.46863	-832.67224	1376.51843	826.20587	-822.93451	1182.12585	756.39612	-790.9649	1062.35352	751.45569	-720.32593	955.99994	769.48755	-658.64038	863.31824	818.59998	-675.56177	851.16602	766.63568	-622.86505	790.09387	789.21545	-820.91644	1358.96008	1139.89722	-813.64728	1138.18982	1217.13757	-795.08246	1027.32361	1233.19556	-775.99481	891.83514	1239.41077	-745.34875	795.74902	1207.30029	-775.33972	791.61548	1252.21375	-752.87897	719.95862	1242.85803	-771.25269	931.45593	860.85004	-751.2403	943.62921	1097.5708	-928.95502	951.07068	922.56024	-915.93646	970.45654	1069.81885	-778.38586	626.26587	819.0033	-732.97058	452.78458	838.98114	-880.57892	324.71008	851.55957	-1029.66089	184.78233	901.4364	-1080.44653	190.0388	942.59741	-954.94208	55.44532	923.06488	-780.79437	647.89392	1144.59937	-753.01361	472.01331	1101.74988	-801.27051	282.85217	1112.71826	-846.03149	70.81959	1070.69092	-896.33313	39.82062	1025.12317	-707.57135	32.429	1046.59485	NaN	NaN	NaN	-838.47986	1676.77844	963.03784	NaN	NaN	NaN	NaN	NaN	NaN	NaN	NaN	NaN	NaN	NaN	NaN	NaN	NaN	NaN	NaN	NaN	NaN
24	0.23	-738.56653	1619.8728	916.91229	-742.55432	1626.7594	1049.52344	-864.32001	1569.22742	918.99408	-862.77649	1575.58899	1049.79541	-889.57104	1412.15881	982.9682	-915.79266	1099.07104	986.00629	-766.56158	1337.98572	979.41351	-718.9082	1174.14941	969.78088	-934.34882	1234.72058	1079.80359	-821.70209	1377.59326	826.50677	-813.29785	1182.84412	756.95831	-782.36536	1062.72131	751.52777	-714.30969	953.99231	767.23651	-654.85437	858.49585	814.13885	-673.117	847.72327	762.26538	-622.46216	784.24274	783.03473	-807.9325	1360.51282	1140.04053	-797.31641	1140.08008	1217.65759	-776.508	1029.71985	1233.64807	-754.47498	894.69446	1239.73889	-722.2218	799.28162	1207.19324	-751.46442	794.59772	1252.48572	-726.79529	723.75323	1243.36243	-758.98608	933.70111	862.02594	-739.08826	944.58209	1098.1272	-916.20648	952.80896	922.9184	-903.07257	971.31799	1070.39294	-760.26245	629.30811	819.25177	-710.36224	456.98807	839.54523	-852.08832	322.42285	851.90698	-995.65607	176.47079	901.80115	-1047.15479	178.6787	942.78467	-913.10657	52.51683	923.90479	-772.70935	647.89423	1144.37781	-748.98596	471.3938	1101.93628	-799.17554	282.87402	1112.78394	-845.6452	71.06147	1070.4165	-895.7851	40.02058	1025.13721	-707.4859	32.36469	1046.55933	NaN	NaN	NaN	-825.02716	1678.06555	963.73169	NaN	NaN	NaN	NaN	NaN	NaN	NaN	NaN	NaN	NaN	NaN	NaN	NaN	NaN	NaN	NaN	NaN	NaN
25	0.24	-725.57367	1620.55249	917.37885	-729.31677	1627.10889	1050.02979	-851.54279	1570.66968	919.53754	-849.92621	1576.69885	1050.35437	-877.39044	1413.07898	983.52301	-903.42468	1099.98901	986.95203	-754.58691	1339.11621	979.29993	-706.81317	1175.20349	969.97571	-921.66315	1236.06409	1081.10107	-810.57898	1378.42004	826.72833	-803.44977	1183.32104	757.31384	-773.94952	1062.93982	751.24115	-708.56024	951.9422	764.82874	-651.20392	853.73077	809.40009	-671.00641	844.29285	757.81708	-622.51038	778.5163	776.72675	-795.0199	1361.83105	1140.14514	-781.19348	1141.92358	1218.2688	-758.06073	1032.00183	1234.08008	-733.00403	897.55908	1239.92749	-699.11322	802.82959	1207.06958	-727.6286	797.65344	1252.66663	-700.89758	727.59229	1243.66833	-745.68018	935.89301	863.04602	-726.97205	945.01166	1098.98633	-903.49603	954.36401	923.25018	-890.4726	972.08801	1070.97388	-742.42804	632.18536	819.3645	-688.27954	461.1532	840.33289	-823.69904	319.84412	852.2428	-960.58441	167.34746	902.159	-1012.54871	166.32402	943.1535	-870.29956	49.83937	924.13843	-764.56958	647.87347	1144.01526	-745.25366	470.87372	1102.28809	-797.32697	283.0076	1112.9978	-845.51398	71.29443	1070.12158	-895.96375	40.81391	1024.92065	-707.37067	32.26474	1046.55579	NaN	NaN	NaN	-811.52612	1679.53162	964.24725	NaN	NaN	NaN	NaN	NaN	NaN	NaN	NaN	NaN	NaN	NaN	NaN	NaN	NaN	NaN	NaN	NaN	NaN
26	0.25	-712.51801	1620.98462	917.85156	-716.08057	1627.33691	1050.4801	-838.80298	1571.89026	920.0683	-836.99048	1577.62573	1050.94421	-865.22687	1413.95618	983.96185	-891.10907	1100.74463	987.83716	-742.5733	1339.80481	979.34534	-694.74768	1176.0907	970.29327	-909.05994	1237.20569	1082.38953	-799.26855	1378.94482	826.95758	-793.54266	1183.54504	757.54572	-765.74115	1062.82349	750.80994	-702.95789	949.65497	762.48077	-648.17236	848.82941	804.74396	-669.56525	840.99103	753.32843	-623.00604	772.99274	770.32257	-782.19452	1363.05029	1140.18677	-765.17957	1143.58521	1218.8269	-739.80798	1034.23645	1234.60791	-711.63037	900.34973	1240.13733	-675.94562	806.49353	1206.92322	-703.86951	800.72998	1252.6958	-675.22101	731.70599	1243.90576	-732.58093	937.57483	863.99591	-714.91321	945.22943	1099.82703	-890.854	955.6217	923.47449	-877.9751	972.69293	1071.44873	-724.96063	634.96497	819.38818	-666.80652	465.1633	841.16956	-795.4577	317.05441	852.82343	-924.69928	157.51143	902.53912	-976.85559	153.24138	943.53082	-826.18811	46.97603	925.1825	-757.36945	648.09937	1144.46558	-741.87091	470.37839	1102.82007	-795.88251	283.22641	1113.32397	-845.34729	71.73075	1070.10974	-895.84802	41.7713	1024.78528	-707.2547	32.19994	1046.56726	NaN	NaN	NaN	-798.12036	1680.4978	965.37555	NaN	NaN	NaN	NaN	NaN	NaN	NaN	NaN	NaN	NaN	NaN	NaN	NaN	NaN	NaN	NaN	NaN	NaN
27	0.26	-699.56628	1621.24792	918.30377	-702.80511	1627.30566	1050.91602	-826.01733	1572.88391	920.62964	-823.96912	1578.31226	1051.46533	-852.8819	1414.60107	984.27124	-879.02155	1101.36963	988.71979	-730.52594	1340.29871	979.37421	-682.63995	1176.62915	970.73602	-896.61279	1238.13672	1083.67493	-787.73022	1379.11328	827.07599	-783.65143	1183.42297	757.65222	-757.50665	1062.36719	750.26862	-697.63092	947.28912	759.93323	-645.35529	844.08282	799.98236	-667.93048	837.646	748.89972	-623.83459	767.62909	763.91217	-769.49506	1364.03796	1140.18298	-749.30035	1145.12439	1219.401	-721.74884	1036.34802	1235.12866	-690.42151	903.1593	1240.26099	-652.89294	810.12378	1206.57947	-680.17755	803.79297	1252.57983	-649.62518	735.72479	1243.87012	-719.802	938.9173	864.86743	-702.81781	945.0694	1100.66565	-878.14362	956.51825	923.59607	-865.58453	973.03534	1071.8363	-707.83508	637.5387	819.35321	-645.95178	468.98874	842.02759	-767.48022	314.19547	853.55798	-887.79181	147.53783	903.15198	-940.07587	139.69505	943.90845	-782.43231	43.78661	925.74634	-748.96582	647.63647	1144.46326	-738.8764	469.8931	1103.53308	-794.80945	283.55884	1113.80664	-845.25488	72.25562	1070.04102	-895.61694	42.53487	1024.57068	-707.10333	32.17387	1046.58643	NaN	NaN	NaN	-784.71057	1681.26038	965.82581	NaN	NaN	NaN	NaN	NaN	NaN	NaN	NaN	NaN	NaN	NaN	NaN	NaN	NaN	NaN	NaN	NaN	NaN
